<?xml version="1.0" encoding="UTF-8"?>
<svg version="1.1" xmlns="http://www.w3.org/2000/svg" width="5584" height="1472">
<path d="M0 0 C1842.72 0 3685.44 0 5584 0 C5584 485.76 5584 971.52 5584 1472 C3741.28 1472 1898.56 1472 0 1472 C0 986.24 0 500.48 0 0 Z " fill="#FEFEFE" transform="translate(0,0)"/>
<path d="M0 0 C3.82147508 0.00427014 7.64293315 -0.00328645 11.46440366 -0.00915251 C18.12537698 -0.01781506 24.78631953 -0.0192627 31.44729706 -0.01564924 C41.35329958 -0.01028986 51.25927286 -0.01648935 61.1652722 -0.02473217 C79.89405541 -0.03989085 98.622825 -0.04168577 117.35161306 -0.03920914 C131.82043845 -0.03736966 146.28925943 -0.03914976 160.75808426 -0.04343358 C162.84382369 -0.04403601 164.92956312 -0.04463721 167.01530255 -0.04523719 C170.15905664 -0.04614453 173.30281072 -0.0470532 176.4465648 -0.04796954 C205.63553774 -0.05638643 234.82450903 -0.0607434 264.01348301 -0.05656282 C265.11150063 -0.05640644 266.20951825 -0.05625007 267.34080912 -0.05608895 C272.90481532 -0.05528328 278.46882151 -0.05443751 284.03282769 -0.05357565 C285.13767512 -0.05340456 286.24252254 -0.05323347 287.38085019 -0.0530572 C289.61511206 -0.05271054 291.84937394 -0.05236201 294.08363581 -0.05201161 C328.85031621 -0.04665421 363.61697126 -0.05459059 398.38364693 -0.07304517 C437.52693712 -0.09379904 476.67021159 -0.10448166 515.81350758 -0.10046969 C519.99347878 -0.10007439 524.17344998 -0.09971284 528.35342118 -0.0993723 C529.38248792 -0.09928157 530.41155466 -0.09919084 531.47180524 -0.09909736 C546.94784711 -0.09793561 562.42387301 -0.10454719 577.89991089 -0.11518422 C595.5141891 -0.12727926 613.12843232 -0.12874566 630.74271109 -0.11639406 C640.57625191 -0.10980553 650.40970888 -0.11130306 660.24324284 -0.12498257 C666.83899328 -0.13330982 673.4346818 -0.13042396 680.03042734 -0.1190073 C683.77003315 -0.11283167 687.50947709 -0.11093426 691.24907269 -0.12287064 C746.11904271 -0.28591465 802.39128194 6.87689518 852.1226606 31.26313647 C852.93074166 31.65758959 853.73882271 32.05204272 854.57139107 32.45844897 C870.41688161 40.27871096 884.75130263 49.68575164 898.1226606 61.26313647 C898.93863717 61.96825366 899.75461373 62.67337084 900.59531685 63.39985522 C903.14320315 65.64894027 905.64026589 67.94198492 908.1226606 70.26313647 C909.05851998 71.13325366 909.99437935 72.00337084 910.9585981 72.89985522 C950.38541077 110.42123437 969.21585897 164.8592038 977.55231759 217.37049731 C977.85239973 219.26052596 978.16305285 221.1488677 978.47446724 223.03706225 C982.19569922 247.81871419 982.42874784 273.13652127 982.38579707 298.14047587 C982.38152693 301.96195095 982.38908352 305.78340901 982.39494958 309.60487952 C982.40361214 316.26585284 982.40505978 322.9267954 982.40144631 329.58777293 C982.39608694 339.49377544 982.40228643 349.39974873 982.41052924 359.30574807 C982.42568793 378.03453128 982.42748285 396.76330086 982.42500622 415.49208893 C982.42316673 429.96091432 982.42494683 444.42973529 982.42923066 458.89856013 C982.42983308 460.98429956 982.43043428 463.07003899 982.43103426 465.15577842 C982.4319416 468.2995325 982.43285028 471.44328658 982.43376661 474.58704066 C982.4421835 503.7760136 982.44654047 532.96498489 982.44235989 562.15395888 C982.44220352 563.2519765 982.44204714 564.34999411 982.44188603 565.48128499 C982.44108036 571.04529118 982.44023458 576.60929737 982.43937272 582.17330356 C982.43920164 583.27815098 982.43903055 584.38299841 982.43885428 585.52132605 C982.43850762 587.75558793 982.43815909 589.9898498 982.43780869 592.22411167 C982.43245128 626.99079208 982.44038767 661.75744712 982.45884224 696.5241228 C982.47959611 735.66741298 982.49027874 774.81068746 982.48626676 813.95398345 C982.48587147 818.13395465 982.48550991 822.31392584 982.48516938 826.49389704 C982.48503328 828.03749715 982.48503328 828.03749715 982.48489443 829.6122811 C982.48373268 845.08832297 982.49034426 860.56434888 982.5009813 876.04038676 C982.51307633 893.65466496 982.51454274 911.26890819 982.50219113 928.88318695 C982.4956026 938.71672777 982.49710014 948.55018474 982.51077965 958.38371871 C982.5191069 964.97946914 982.51622103 971.57515767 982.50480438 978.17090321 C982.49862875 981.91050901 982.49673134 985.64995295 982.50866771 989.38954856 C982.67171172 1044.25951858 975.5089019 1100.5317578 951.1226606 1150.26313647 C950.72820748 1151.07121752 950.33375435 1151.87929858 949.9273481 1152.71186694 C942.10708611 1168.55735747 932.70004544 1182.89177849 921.1226606 1196.26313647 C920.41754342 1197.07911303 919.71242623 1197.89508959 918.98594185 1198.73579272 C916.73685681 1201.28367901 914.44381216 1203.78074175 912.1226606 1206.26313647 C911.25254342 1207.19899584 910.38242623 1208.13485522 909.48594185 1209.09907397 C864.32344856 1256.55503649 795.39866028 1274.74772489 732.1226606 1279.26313647 C731.00047963 1279.34640901 729.87829866 1279.42968155 728.72211221 1279.5154775 C714.47833038 1280.48270459 700.22632045 1280.41090326 685.95704791 1280.40400675 C682.13827182 1280.40326714 678.31950229 1280.40831826 674.50072911 1280.41258177 C666.94760027 1280.42011411 659.39447851 1280.42235238 651.8413463 1280.42291082 C642.78506562 1280.42382921 633.72879138 1280.43051074 624.6725135 1280.43725764 C602.79088753 1280.45327139 580.90926229 1280.45921569 559.02763151 1280.46400639 C548.6639284 1280.46634702 538.30022583 1280.46995018 527.93652315 1280.47370177 C492.41824195 1280.48653328 456.89996106 1280.49725271 421.38167759 1280.50070437 C419.15459971 1280.500926 416.92752183 1280.50114778 414.70044395 1280.50136972 C412.46818124 1280.50159036 410.23591853 1280.50181084 408.00365582 1280.50203117 C403.52582734 1280.50247371 399.04799885 1280.50292083 394.57017037 1280.50337084 C393.4599402 1280.50348024 392.34971002 1280.50358963 391.20583651 1280.50370233 C355.22892956 1280.50733074 319.25204278 1280.52324467 283.27514356 1280.54656121 C245.18382737 1280.57120269 207.0925227 1280.58487921 169.00119832 1280.58607229 C164.81314532 1280.58624373 160.62509233 1280.58645915 156.43703934 1280.58670672 C155.4059216 1280.58676249 154.37480385 1280.58681826 153.31244012 1280.58687572 C136.77820599 1280.5880224 120.24399271 1280.59901158 103.7097656 1280.61359378 C87.06510138 1280.62801863 70.42046365 1280.63116215 53.77579488 1280.6231538 C43.91121852 1280.61872565 34.04672817 1280.62244416 24.18216325 1280.63839231 C17.56523301 1280.64824379 10.94836208 1280.64686876 4.3314322 1280.63695608 C0.57947933 1280.63163612 -3.17231017 1280.63061357 -6.92424856 1280.6434648 C-54.40523175 1280.79567469 -105.95503871 1276.55610967 -149.8773394 1257.26313647 C-151.26261635 1256.66906058 -152.6480427 1256.07533297 -154.0335894 1255.48188647 C-162.7223916 1251.72438722 -171.16768771 1247.67221145 -179.48354057 1243.14497241 C-182.26079491 1241.63334918 -184.87004599 1240.2655676 -187.8773394 1239.26313647 C-187.8773394 1238.60313647 -187.8773394 1237.94313647 -187.8773394 1237.26313647 C-188.91567924 1236.90348803 -188.91567924 1236.90348803 -189.97499565 1236.53657397 C-193.39509223 1235.03596632 -196.30575567 1233.0678884 -199.3148394 1230.88813647 C-199.92464652 1230.44751879 -200.53445365 1230.00690112 -201.16273979 1229.55293139 C-255.33091349 1189.81847976 -283.0075155 1129.07013336 -293.1273394 1063.95063647 C-294.79077166 1052.76110943 -296.07212929 1041.54681987 -296.8773394 1030.26313647 C-296.96061194 1029.1409555 -297.04388448 1028.01877453 -297.12968043 1026.86258807 C-298.09690751 1012.61880625 -298.02510618 998.36679631 -298.01820967 984.09752377 C-298.01747007 980.27874769 -298.02252119 976.45997816 -298.02678469 972.64120498 C-298.03431703 965.08807613 -298.03655531 957.53495437 -298.03711375 949.98182216 C-298.03803214 940.92554148 -298.04471367 931.86926724 -298.05146057 922.81298936 C-298.06747432 900.93136339 -298.07341862 879.04973816 -298.07820932 857.16810738 C-298.08054995 846.80440426 -298.0841531 836.4407017 -298.0879047 826.07699901 C-298.1007362 790.55871782 -298.11145564 755.04043692 -298.1149073 719.52215346 C-298.11512892 717.29507558 -298.11535071 715.0679977 -298.11557265 712.84091982 C-298.11579328 710.60865711 -298.11601377 708.3763944 -298.1162341 706.14413168 C-298.11667663 701.6663032 -298.11712375 697.18847472 -298.11757377 692.71064624 C-298.11773786 691.04530097 -298.11773786 691.04530097 -298.11790526 689.34631237 C-298.12153366 653.36940542 -298.1374476 617.39251865 -298.16076413 581.41561942 C-298.18540561 543.32430323 -298.19908213 505.23299857 -298.20027522 467.14167418 C-298.20044665 462.95362119 -298.20066207 458.7655682 -298.20090965 454.57751521 C-298.20096542 453.54639746 -298.20102118 452.51527972 -298.20107864 451.45291598 C-298.20222532 434.91868186 -298.21321451 418.38446858 -298.2277967 401.85024147 C-298.24222155 385.20557725 -298.24536508 368.56093951 -298.23735673 351.91627075 C-298.23292858 342.05169438 -298.23664708 332.18720403 -298.25259523 322.32263912 C-298.26244671 315.70570887 -298.26107168 309.08883795 -298.251159 302.47190806 C-298.24583905 298.71995519 -298.24481649 294.9681657 -298.25766772 291.21622731 C-298.40987761 243.73524411 -294.17031259 192.18543716 -274.8773394 148.26313647 C-274.28326351 146.87785951 -273.68953589 145.49243317 -273.0960894 144.10688647 C-269.33859014 135.41808426 -265.28641438 126.97278816 -260.75917533 118.6569353 C-259.24755211 115.87968096 -257.87977053 113.27042987 -256.8773394 110.26313647 C-256.2173394 110.26313647 -255.5573394 110.26313647 -254.8773394 110.26313647 C-254.63757377 109.57090991 -254.39780815 108.87868334 -254.1507769 108.16548022 C-252.65016924 104.74538364 -250.68209133 101.8347202 -248.5023394 98.82563647 C-248.06172172 98.21582934 -247.62110404 97.60602221 -247.16713432 96.97773608 C-207.14515301 42.41758623 -146.21517049 15.2232661 -80.76997856 4.83347949 C-78.87994991 4.53339735 -76.99160816 4.22274423 -75.10341361 3.91132983 C-50.32176167 0.19009785 -25.0039546 -0.04295077 0 0 Z " fill="#1A6BFF" transform="translate(393.87733939569443,95.73686353024095)"/>
<path d="M0 0 C8.34862289 7.2978782 15.89335576 15.06869032 22.73266602 23.80639648 C23.66528137 24.99715584 24.60307866 26.18386345 25.54418945 27.36791992 C33.18406476 36.99301396 40.10586487 46.69551769 46.03100586 57.46411133 C46.48830078 58.28588867 46.9455957 59.10766602 47.41674805 59.9543457 C59.65663784 82.11040199 68.60426784 104.99844748 75.03100586 129.46411133 C75.26126465 130.32891113 75.49152344 131.19371094 75.72875977 132.0847168 C81.69150628 154.76765199 85.58345107 178.0561969 87.03100586 201.46411133 C87.11560059 202.81013428 87.11560059 202.81013428 87.2019043 204.18334961 C89.19881208 237.49862472 87.7484476 270.55251581 82.03100586 303.46411133 C81.87905762 304.35598145 81.72710938 305.24785156 81.57055664 306.16674805 C70.39303789 370.50232283 38.86492095 434.49418707 -14.96899414 473.46411133 C-16.0118457 474.22852539 -17.05469727 474.99293945 -18.12915039 475.78051758 C-65.25334099 509.35723331 -126.60070632 523.72737028 -183.94555664 514.38598633 C-194.42981724 512.54773139 -204.7376303 510.40979376 -214.96899414 507.46411133 C-215.66726318 507.26833496 -216.36553223 507.07255859 -217.08496094 506.87084961 C-227.22470652 503.99649007 -236.60974774 500.28990138 -245.96899414 495.46411133 C-247.04068848 494.91279541 -247.04068848 494.91279541 -248.1340332 494.3503418 C-262.31147812 486.96612765 -275.12050986 478.36656196 -286.83227539 467.44848633 C-288.72463833 465.69104506 -290.66154663 464.03984637 -292.65649414 462.40161133 C-300.75569535 455.46749242 -310.18021701 445.04166559 -314.96899414 435.46411133 C-315.62899414 435.46411133 -316.28899414 435.46411133 -316.96899414 435.46411133 C-317.29899414 520.60411133 -317.62899414 605.74411133 -317.96899414 693.46411133 C-367.13899414 693.46411133 -416.30899414 693.46411133 -466.96899414 693.46411133 C-466.96899414 450.25411133 -466.96899414 207.04411133 -466.96899414 -43.53588867 C-420.10899414 -43.53588867 -373.24899414 -43.53588867 -324.96899414 -43.53588867 C-324.96899414 -20.43588867 -324.96899414 2.66411133 -324.96899414 26.46411133 C-323.97899414 26.46411133 -322.98899414 26.46411133 -321.96899414 26.46411133 C-321.64608398 25.46444336 -321.64608398 25.46444336 -321.31665039 24.44458008 C-319.51813094 20.46698488 -317.04689763 17.23547863 -314.40649414 13.77661133 C-313.86565186 13.06400146 -313.32480957 12.3513916 -312.76757812 11.6171875 C-308.43526768 5.96448061 -303.90511309 0.60219914 -298.96899414 -4.53588867 C-298.27217529 -5.27935547 -298.27217529 -5.27935547 -297.5612793 -6.0378418 C-275.98812291 -28.99898982 -248.13993652 -43.22101178 -217.96899414 -51.53588867 C-216.90358398 -51.82955322 -216.90358398 -51.82955322 -215.81665039 -52.12915039 C-139.94117257 -72.35201401 -58.56916015 -50.49453015 0 0 Z " fill="#0C1A2E" transform="translate(5056.968994140625,681.535888671875)"/>
<path d="M0 0 C-0.65277501 7.22265668 -2.00319089 14.13197924 -3.59553528 21.20207214 C-3.86339456 22.40924224 -4.13125385 23.61641233 -4.40723008 24.86016333 C-5.14886221 28.19796719 -5.89475559 31.53476578 -6.64248466 34.87120558 C-7.45272015 38.49152282 -8.25737981 42.11307963 -9.06273651 45.73448467 C-10.46702975 52.04552892 -11.87482924 58.35578282 -13.28496742 64.66552353 C-15.35794942 73.94129969 -17.42541459 83.21829908 -19.49163904 92.49558255 C-22.91424834 107.86234818 -26.34110446 123.2281636 -29.77050781 138.59341431 C-34.59130163 160.19287254 -39.40652516 181.79356993 -44.22030213 203.39459293 C-45.89251088 210.89828921 -47.56482984 218.40196094 -49.23715718 225.90563079 C-49.65442982 227.77791886 -50.07169976 229.65020752 -50.48896699 231.5224968 C-53.4068605 244.61509854 -56.32556137 257.70752007 -59.24488889 270.79980213 C-69.04966969 314.77141843 -78.8412589 358.74591862 -88.60546875 402.7265625 C-89.14158965 405.14117096 -89.67771541 407.55577834 -90.21384621 409.9703846 C-94.80047815 430.62794511 -99.38529462 451.28590796 -103.96727949 471.94449973 C-105.67441717 479.64100179 -107.38261954 487.33726707 -109.09166616 495.03334546 C-110.23304937 500.17347114 -111.37308374 505.31389312 -112.51193112 510.4545812 C-113.18646394 513.49788929 -113.86228963 516.54090909 -114.53851736 519.58384097 C-114.84600804 520.96876012 -115.15295374 522.3538004 -115.45930922 523.73897111 C-115.87160422 525.60281805 -116.28602002 527.46619549 -116.70056152 529.32954407 C-116.9292971 530.36088628 -117.15803268 531.39222849 -117.39369965 532.45482349 C-118 535 -118 535 -119 538 C-122.99284026 536.39467599 -125.67304347 533.60091072 -128.644104 530.59640503 C-129.20288482 530.03933306 -129.76166564 529.48226109 -130.33737922 528.90830815 C-132.20919798 527.03978456 -134.07377721 525.16420069 -135.93847656 523.28857422 C-137.27852143 521.94796524 -138.61900678 520.60779643 -139.9598999 519.26803589 C-143.60040279 515.62810753 -147.23470023 511.98203943 -150.86793232 508.33485556 C-154.6653614 504.52493591 -158.4684435 500.72066784 -162.27093506 496.915802 C-169.47134033 489.70917704 -176.66663157 482.49746835 -183.86010909 475.28392899 C-192.04957417 467.07212014 -200.24470944 458.86598004 -208.44033098 450.66031623 C-225.29988039 433.77985375 -242.15228013 416.89226851 -259 400 C-263.9974522 404.18921381 -268.69551979 408.55366603 -273.29569149 413.17264366 C-273.99937836 413.87517669 -274.70306523 414.57770971 -275.42807594 415.30153161 C-277.78205851 417.65287031 -280.13246149 420.00775428 -282.4828949 422.36264038 C-284.18814063 424.06744995 -285.89360613 425.77203972 -287.59927231 427.47642863 C-291.3053767 431.18076363 -295.00992726 434.88664519 -298.71310806 438.59390259 C-304.21957764 444.10641699 -309.72892207 449.61605149 -315.23885318 455.12510571 C-324.50817239 464.39311213 -333.77516537 473.66344121 -343.04083061 482.93510056 C-352.21377902 492.11396787 -361.38776243 501.2917987 -370.56312752 510.46825027 C-371.13382121 511.03901271 -371.70451491 511.60977515 -372.29250235 512.19783341 C-375.19082346 515.09649285 -378.08916304 517.99513382 -380.98750973 520.89376767 C-401.51149642 541.41985424 -422.03316412 561.94825786 -442.5534668 582.47802734 C-462.48751321 602.42125948 -482.42261072 622.36343997 -502.35913086 642.30419922 C-502.97376121 642.9189611 -503.58839156 643.53372298 -504.22164708 644.167114 C-510.39407105 650.34085651 -516.56651639 656.51457765 -522.73897737 662.68828315 C-535.31276743 675.26460936 -547.88641492 687.84107811 -560.4599762 700.41763306 C-561.0380766 700.99587075 -561.61617701 701.57410845 -562.21179561 702.1698685 C-600.81025239 740.7775245 -639.4053753 779.38851326 -678 818 C-681.91690087 816.18145061 -684.63157874 813.65664725 -687.65083313 810.62332153 C-688.21031952 810.06907183 -688.7698059 809.51482212 -689.34624642 808.94377697 C-691.22040542 807.08462451 -693.08734203 805.21838665 -694.9543457 803.35205078 C-696.29605041 802.0179668 -697.63815734 800.68428722 -698.9806366 799.35098267 C-702.62571992 795.72785239 -706.26420134 792.09816228 -709.90086389 788.46658182 C-712.17129881 786.19978775 -714.443027 783.93429803 -716.71520042 781.66924667 C-724.636253 773.77268579 -732.55157098 765.87042313 -740.4621582 757.96337891 C-747.8462684 750.58290969 -755.24342286 743.21569188 -762.64659435 735.85434735 C-768.99600125 729.53956505 -775.3358203 723.21526384 -781.66828793 716.88349521 C-785.45341509 713.09916316 -789.24246263 709.31896271 -793.0413456 705.54843521 C-796.61048587 702.00534314 -800.16761369 698.45062707 -803.71568489 694.88644028 C-805.02273955 693.57756089 -806.33411353 692.27297916 -807.64998245 690.97296143 C-809.43974988 689.20345423 -811.21357747 687.41939243 -812.98408508 685.63064575 C-813.51343841 685.11449239 -814.04279174 684.59833903 -814.58818609 684.06654465 C-816.01025867 682.61056709 -816.01025867 682.61056709 -818 680 C-817.6679285 676.75565114 -816.47487307 675.10023387 -814.20839733 672.83580184 C-813.60984848 672.23051111 -813.01129963 671.62522038 -812.39461294 671.00158751 C-811.72983225 670.34468786 -811.06505156 669.68778821 -810.380126 669.01098251 C-809.6766087 668.30400368 -808.97309141 667.59702485 -808.2482554 666.86862242 C-805.86818664 664.4805573 -803.47748851 662.10342009 -801.08677673 659.72601318 C-799.36935536 658.00728465 -797.65259292 656.28789747 -795.93643671 654.56790566 C-792.19296315 650.81910668 -788.44484826 647.0750399 -784.69262314 643.33500671 C-779.11320448 637.77366683 -773.54238225 632.20377569 -767.9733149 626.6320725 C-758.60577309 617.26058551 -749.23125405 607.89610743 -739.85276604 598.53557587 C-730.56420286 589.26475151 -721.27873743 579.99084262 -711.99740791 570.71277618 C-711.42075639 570.13633088 -710.84410487 569.55988558 -710.24997906 568.96597224 C-707.3215853 566.03859344 -704.39324693 563.11115924 -701.46492989 560.18370369 C-680.71267628 539.4377547 -659.95347285 518.69877277 -639.19018555 497.96386719 C-619.01642046 477.81764623 -598.84580213 457.66828323 -578.67944336 437.51464844 C-578.05804763 436.89364728 -577.43665189 436.27264613 -576.79642599 435.63282676 C-570.55623294 429.3965892 -564.31610389 423.16028761 -558.07602174 416.92393909 C-545.36376058 404.21928698 -532.65107223 391.51506239 -519.93812561 378.81109619 C-519.35357951 378.22696196 -518.76903341 377.64282773 -518.16677379 377.04099246 C-479.11833676 338.02016683 -440.05991083 299.0093399 -401 260 C-402.82081134 256.07463915 -405.3549333 253.37062098 -408.40359497 250.355896 C-408.96066694 249.79711518 -409.51773891 249.23833436 -410.09169185 248.66262078 C-411.96021544 246.79080202 -413.83579931 244.92622279 -415.71142578 243.06152344 C-417.05203476 241.72147857 -418.39220357 240.38099322 -419.73196411 239.0401001 C-423.37189247 235.39959721 -427.01796057 231.76529977 -430.66514444 228.13206768 C-434.47506409 224.3346386 -438.27933216 220.5315565 -442.084198 216.72906494 C-449.29082296 209.52865967 -456.50253165 202.33336843 -463.71607101 195.13989091 C-471.92787986 186.95042583 -480.13401996 178.75529056 -488.33968377 170.55966902 C-505.22014625 153.70011961 -522.10773149 136.84771987 -539 120 C-536.01854314 118.36840491 -533.24766006 117.47285961 -529.93394279 116.73953533 C-528.90448923 116.50901116 -527.87503567 116.27848699 -526.81438655 116.04097724 C-525.6837295 115.79346473 -524.55307246 115.54595222 -523.38815308 115.29093933 C-522.18399948 115.02293243 -520.97984589 114.75492552 -519.7392028 114.4787972 C-516.38804301 113.73405652 -513.03588965 112.9941045 -509.68324099 112.25611429 C-506.05353171 111.45591556 -502.42518737 110.64957203 -498.79667377 109.84397221 C-492.46508951 108.43911719 -486.13265289 107.03815935 -479.79964256 105.63974762 C-470.4872361 103.58341118 -461.17620403 101.52090563 -451.86548062 99.45696373 C-436.43955953 96.03759341 -421.0126165 92.62285649 -405.58505249 89.21090698 C-382.9460308 84.20402583 -360.30840542 79.19085202 -337.67114258 74.17602539 C-335.78629903 73.75848222 -333.9014554 73.34093941 -332.0166117 72.92339694 C-324.48506811 71.25495408 -316.95352726 69.58649887 -309.42200667 67.91795224 C-300.01380203 65.83366143 -290.60553918 63.74963399 -281.19714546 61.66619682 C-235.14885041 51.4690326 -189.10498268 41.25263347 -143.07433319 30.97608733 C-139.36950043 30.14898993 -135.66462962 29.3220632 -131.95974731 28.49518776 C-110.87792192 23.78990854 -89.7966563 19.08214554 -68.71792322 14.36303079 C-60.84462544 12.60053563 -52.9707141 10.84080087 -45.09630483 9.0832783 C-39.83075485 7.90784882 -34.56602052 6.72886294 -29.30196238 5.54677123 C-26.18075991 4.84677073 -23.05879187 4.15023773 -19.93657517 3.45477641 C-18.51614107 3.13763599 -17.09603113 2.81903955 -15.67627883 2.49886072 C-13.76367238 2.0677263 -11.84978784 1.6422733 -9.93583679 1.21714783 C-8.87721782 0.98011611 -7.81859884 0.74308439 -6.72790051 0.4988699 C-4 0 -4 0 0 0 Z " fill="#FEFEFF" transform="translate(1155,337)"/>
<path d="M0 0 C0.60376465 0.43538086 1.2075293 0.87076172 1.82958984 1.31933594 C20.51654872 14.86168813 37.77708291 29.73179671 52 48 C52.7528125 48.92425781 53.505625 49.84851563 54.28125 50.80078125 C98.99743126 106.76859903 118.31644559 180.67974885 118.13037109 251.4453125 C118.12495957 253.89329078 118.1303819 256.34108936 118.13671875 258.7890625 C118.1360586 260.37760456 118.13477875 261.96614652 118.1328125 263.5546875 C118.13483673 264.27050995 118.13686096 264.9863324 118.13894653 265.72384644 C118.11516255 270.94272129 117.58439357 275.74045787 117 281 C-13.02 281 -143.04 281 -277 281 C-272.59944937 320.60495567 -267.0837309 365.02658072 -234.125 392.1875 C-202.69885482 416.16555267 -161.48369424 422.74964379 -122.77050781 418.23095703 C-98.66603893 414.90918807 -76.06701639 406.22152121 -57 391 C-56.41379883 390.54254395 -55.82759766 390.08508789 -55.22363281 389.61376953 C-42.27812987 379.43831079 -31.9819562 367.77660354 -25.94140625 352.28515625 C-25 350 -25 350 -24 349 C-22.30441297 348.90380559 -20.6047916 348.87812341 -18.90647888 348.87974548 C-17.80285004 348.87837082 -16.69922119 348.87699615 -15.56214905 348.87557983 C-13.73012184 348.88097275 -13.73012184 348.88097275 -11.86108398 348.88647461 C-9.94428833 348.88625557 -9.94428833 348.88625557 -7.98876953 348.8860321 C-4.47446409 348.88574415 -0.9601925 348.8916406 2.55410504 348.89860606 C6.22299356 348.90483988 9.89188277 348.90544342 13.56077576 348.90663147 C20.51290435 348.9097447 27.4650173 348.91795798 34.41713899 348.92798096 C42.3299478 348.93914234 50.24275734 348.94465261 58.15557206 348.94967639 C74.43705721 348.9601406 90.71852661 348.97773989 107 349 C106.52347293 350.7681008 106.04543591 352.5357947 105.5667572 354.30331421 C105.30071151 355.28774191 105.03466581 356.27216961 104.76055813 357.28642845 C103.38123008 362.20768984 101.47608626 366.89179211 99.5625 371.625 C99.12929443 372.6982251 98.69608887 373.7714502 98.24975586 374.87719727 C84.3147529 408.8671219 66.15069211 438.2266826 41 465 C40.41863281 465.63550781 39.83726562 466.27101563 39.23828125 466.92578125 C33.47667311 473.00667246 26.65622457 477.95242899 20 483 C19.21109375 483.60714844 18.4221875 484.21429687 17.609375 484.83984375 C-26.32689063 517.15986649 -82.11309169 530.00578127 -135.75 531.625 C-136.47410065 531.64712555 -137.19820129 531.6692511 -137.94424438 531.69204712 C-150.67869877 532.06491735 -163.28591661 531.88236541 -176 531 C-177.28898193 530.92507324 -177.28898193 530.92507324 -178.60400391 530.84863281 C-202.81655225 529.42249509 -226.73419764 524.42198893 -249.71777344 516.7578125 C-251.71276158 516.09537741 -253.71888712 515.46667653 -255.7265625 514.84375 C-261.08108756 513.16283581 -266.00326485 511.15226168 -270.97265625 508.55078125 C-275.10256249 506.43520347 -279.30111379 504.47427854 -283.5 502.5 C-290.04245404 499.41542722 -296.55988098 496.2945596 -303 493 C-303 492.34 -303 491.68 -303 491 C-303.6703125 490.77183594 -304.340625 490.54367187 -305.03125 490.30859375 C-308.83912609 488.63012205 -312.08874401 486.42968629 -315.5 484.0625 C-316.20487549 483.57450928 -316.90975098 483.08651855 -317.63598633 482.58374023 C-324.4579974 477.78979065 -330.78870628 472.55333394 -337 467 C-337.5372168 466.52449707 -338.07443359 466.04899414 -338.62792969 465.55908203 C-394.08326473 416.30750406 -422.14304535 343.02297568 -426.53515625 270.0625 C-427.05328151 261.26955057 -427.19951151 252.49424014 -427.1875 243.6875 C-427.18722809 242.92653015 -427.18695618 242.1655603 -427.18667603 241.38153076 C-427.16848747 230.25682907 -426.83354809 219.29264471 -425.30761719 208.25732422 C-424.98846609 205.91536303 -424.71510302 203.5707804 -424.4453125 201.22265625 C-423.11227852 190.27847944 -420.92818891 179.55770019 -418.5 168.8125 C-418.3505191 168.14914642 -418.20103821 167.48579285 -418.04702759 166.80233765 C-415.7098648 156.49602681 -413.13369051 146.51157635 -409.0859375 136.7421875 C-407.86248596 133.65275232 -406.81358807 130.52293516 -405.75 127.375 C-403.12415128 119.9551706 -399.70323432 113.08022638 -396.08349609 106.10253906 C-394.18579997 102.42003365 -392.34667307 98.70827544 -390.5 95 C-389.82316569 93.64570885 -389.14610624 92.29153018 -388.46875 90.9375 C-387.9840625 89.968125 -387.499375 88.99875 -387 88 C-386.34 88 -385.68 88 -385 88 C-384.77957031 87.34644531 -384.55914063 86.69289063 -384.33203125 86.01953125 C-382.53374393 81.94306176 -380.16291787 78.38286631 -377.6875 74.6875 C-377.15769531 73.89641846 -376.62789062 73.10533691 -376.08203125 72.2902832 C-354.50833431 40.57226427 -325.94363558 14.48394046 -293 -5 C-292.20899902 -5.47034668 -291.41799805 -5.94069336 -290.60302734 -6.42529297 C-207.03752712 -55.60044108 -95.96489452 -55.74823448 0 0 Z " fill="#0C1A2E" transform="translate(2330,666)"/>
<path d="M0 0 C5.62338414 5.76593916 10.67578356 11.83036063 15.45776367 18.30493164 C16.80949116 20.13120714 18.18411222 21.93858462 19.56176758 23.74536133 C25.4913024 31.59071791 30.79051013 39.66002868 35.67700195 48.19165039 C36.73860323 50.02697729 37.83173169 51.83978851 38.93286133 53.65161133 C62.42682882 92.95460367 73.98733918 140.7459686 77.76098633 186.06567383 C77.84928711 187.11561523 77.93758789 188.16555664 78.02856445 189.24731445 C78.75394137 198.82126085 78.91586469 208.34080833 78.89135742 217.93823242 C78.88594777 220.45863735 78.89136629 222.97886766 78.89770508 225.49926758 C78.89704491 227.13338255 78.89576502 228.76749741 78.89379883 230.40161133 C78.89582306 231.13930756 78.89784729 231.87700378 78.89993286 232.63705444 C78.87658787 237.90787655 78.35086468 242.75676869 77.76098633 248.06567383 C-51.92901367 248.06567383 -181.61901367 248.06567383 -315.23901367 248.06567383 C-314.59118116 262.0851766 -314.59118116 262.0851766 -312.98901367 275.94067383 C-312.86042969 276.76108154 -312.7318457 277.58148926 -312.59936523 278.42675781 C-308.32626608 304.3441404 -300.50984054 332.45910953 -281.00463867 351.21411133 C-279.23901367 353.06567383 -279.23901367 353.06567383 -279.23901367 355.06567383 C-278.38049805 355.45045898 -278.38049805 355.45045898 -277.50463867 355.84301758 C-275.01109747 357.18866998 -273.13101327 358.77452033 -270.98901367 360.62817383 C-241.98131086 384.02970274 -200.70814892 389.02310852 -164.68041992 385.60083008 C-148.71416981 383.75258542 -132.4965548 379.61733756 -118.23901367 372.06567383 C-117.63637695 371.75259277 -117.03374023 371.43951172 -116.4128418 371.11694336 C-107.18653535 366.29000986 -99.04492144 361.02311336 -91.23901367 354.06567383 C-89.9628418 352.98672852 -89.9628418 352.98672852 -88.66088867 351.88598633 C-81.34429309 345.57935026 -73.4586589 338.38922979 -70.23901367 329.06567383 C-69.57901367 329.06567383 -68.91901367 329.06567383 -68.23901367 329.06567383 C-68.0456543 328.46239258 -67.85229492 327.85911133 -67.65307617 327.23754883 C-67.26249023 326.0387207 -67.26249023 326.0387207 -66.86401367 324.81567383 C-66.6087793 324.02676758 -66.35354492 323.23786133 -66.09057617 322.42504883 C-65.23901367 320.06567383 -65.23901367 320.06567383 -63.23901367 316.06567383 C-20.00901367 316.06567383 23.22098633 316.06567383 67.76098633 316.06567383 C55.69915241 370.34392646 18.84775981 426.03894244 -27.84057617 456.45239258 C-31.56537057 458.79391378 -35.38262071 460.94957984 -39.23901367 463.06567383 C-40.08737793 463.53360352 -40.93574219 464.0015332 -41.80981445 464.48364258 C-113.75633885 503.85371184 -203.97238335 508.73223295 -282.2565918 486.19702148 C-291.273543 483.45384056 -300.20750641 480.44096549 -308.69213867 476.30395508 C-310.93539034 475.21329438 -313.19262414 474.20204414 -315.47729492 473.20239258 C-343.8752745 460.62363767 -367.90745233 442.35939927 -389.86401367 420.62817383 C-390.66403809 419.84128174 -391.4640625 419.05438965 -392.28833008 418.24365234 C-406.6952543 403.85606428 -418.18206153 386.75498588 -428.12036133 369.05200195 C-429.14690679 367.22922284 -430.19766893 365.42013743 -431.25073242 363.61254883 C-471.93409011 291.32325606 -474.92595021 198.14715146 -453.53442383 119.47436523 C-451.73342508 113.16635744 -449.7107091 107.01550653 -447.06835938 101.00268555 C-446.13410784 98.82065679 -445.27857368 96.61398008 -444.41870117 94.40161133 C-442.01426723 88.36198381 -439.20122638 82.5366184 -436.36401367 76.69067383 C-435.60797852 75.1205957 -435.60797852 75.1205957 -434.83666992 73.51879883 C-431.36894838 66.33502785 -427.8236012 59.1917764 -424.23901367 52.06567383 C-423.57901367 52.06567383 -422.91901367 52.06567383 -422.23901367 52.06567383 C-422.01342773 51.39793945 -421.7878418 50.73020508 -421.55541992 50.04223633 C-419.84789444 46.18130334 -417.58526433 42.89576146 -415.17651367 39.44067383 C-414.68699219 38.73354248 -414.1974707 38.02641113 -413.69311523 37.29785156 C-410.09925721 32.16301905 -406.31032149 27.28557536 -402.26635742 22.49536133 C-400.43541468 20.3010523 -398.74239938 18.05547706 -397.05151367 15.75317383 C-389.73040498 6.25968009 -380.50738544 -2.35843968 -371.23901367 -9.93432617 C-370.70163574 -10.37486328 -370.16425781 -10.81540039 -369.6105957 -11.26928711 C-367.7001935 -12.83072725 -365.78344818 -14.38400452 -363.86401367 -15.93432617 C-363.26339111 -16.4211084 -362.66276855 -16.90789063 -362.04394531 -17.40942383 C-285.13435932 -78.92476901 -169.26481116 -95.02109472 0 0 Z " fill="#0C1A2E" transform="translate(3524.239013671875,698.934326171875)"/>
<path d="M0 0 C49.5 0 99 0 150 0 C150.04898438 23.19410156 150.09796875 46.38820313 150.1484375 70.28515625 C150.1838288 84.99154002 150.21970008 99.69792028 150.2578125 114.40429688 C150.27781766 122.13338178 150.29770164 129.86246699 150.31738281 137.59155273 C150.31985425 138.56014038 150.32232569 139.52872803 150.32487202 140.52666682 C150.36448817 156.12184969 150.39727578 171.71703971 150.42749982 187.31224329 C150.4587188 203.34160158 150.49737202 219.37092979 150.54279006 235.40025419 C150.57053877 245.2748138 150.59263011 255.14935165 150.60726251 265.02393954 C150.6178825 271.81420133 150.63578537 278.60442075 150.65916704 285.39465047 C150.67240817 289.30020044 150.68267741 293.20569158 150.68421364 297.11126518 C150.70577733 337.85044906 151.14181256 389.31995705 181 421 C196.00338935 434.65980224 216.08391171 441.08448624 236.1796875 441.203125 C236.95071808 441.20882507 237.72174866 441.21452515 238.5161438 441.22039795 C240.1448634 441.22979958 241.77360161 441.23636256 243.40234375 441.24023438 C245.83369547 441.24983687 248.26416225 441.28086242 250.6953125 441.3125 C261.44733938 441.38534645 271.49570135 440.27454732 282 438 C282.87382324 437.81179688 283.74764648 437.62359375 284.64794922 437.4296875 C307.24865076 432.13256725 326.72687878 419.4029394 339.12109375 399.61328125 C343.07515532 393.00486445 346.51661839 386.30344717 349 379 C349.39832031 377.84371094 349.79664062 376.68742187 350.20703125 375.49609375 C355.09434192 360.86016795 357.92476462 346.06609017 359.6875 330.75 C359.86659912 329.2189563 359.86659912 329.2189563 360.04931641 327.65698242 C362.20898273 307.34955558 362.16024006 286.8715011 362.20060861 266.47485173 C362.20876989 262.88352723 362.22241083 259.29222247 362.23532104 255.70091248 C362.25686591 249.50748389 362.2750882 243.31405309 362.29092598 237.12060738 C362.31382857 228.16638924 362.34194069 219.21219313 362.37124526 210.25799393 C362.41867456 195.72351945 362.46200392 181.18903584 362.50268555 166.65454102 C362.5421671 152.55199476 362.58363331 138.44945658 362.62768555 124.34692383 C362.63180981 123.0254509 362.63180981 123.0254509 362.63601738 121.67728156 C362.65754185 114.78542602 362.67917987 107.89357085 362.70085371 101.00171578 C362.80670306 67.33449362 362.90266588 33.66724993 363 0 C412.17 0 461.34 0 512 0 C512 180.18 512 360.36 512 546 C465.14 546 418.28 546 370 546 C370 520.92 370 495.84 370 470 C365.58608184 471.10347954 365.11233651 471.85610606 362.85546875 475.55761719 C362.49066406 476.17797852 362.12585937 476.79833984 361.75 477.4375 C355.53324346 487.53716471 348.08180289 496.33315077 340 505 C339.27554688 505.79019531 338.55109375 506.58039063 337.8046875 507.39453125 C304.56300683 542.27012504 252.04751034 558.98380471 204.84375 560.25 C168.98879349 560.76031482 132.24686945 556.97583807 99 543 C97.81792969 542.50757813 96.63585938 542.01515625 95.41796875 541.5078125 C79.48989507 534.48125657 65.56948918 525.03324817 53 513 C52.26523438 512.32839844 51.53046875 511.65679688 50.7734375 510.96484375 C16.37485821 478.45028559 6.81532631 428.46573129 2.25 383.5 C2.13438721 382.38955322 2.01877441 381.27910645 1.8996582 380.13500977 C-0.37598179 355.51420928 -0.14937944 330.647286 -0.11606562 305.94250083 C-0.11165338 301.81620032 -0.11321499 297.68990084 -0.1139679 293.56359863 C-0.11448646 286.45302065 -0.11141046 279.34245201 -0.10573006 272.23187637 C-0.09752309 261.95180342 -0.09499054 251.67173488 -0.09374207 241.39165901 C-0.09156581 224.70364903 -0.08494484 208.01564401 -0.07543945 191.32763672 C-0.06622813 175.13883488 -0.0591771 158.9500344 -0.05493164 142.76123047 C-0.05466364 141.74935437 -0.05439565 140.73747827 -0.05411953 139.69493926 C-0.0520395 131.77871166 -0.05008279 123.86248404 -0.04816496 115.9462564 C-0.0387703 77.29749972 -0.01864288 38.64875547 0 0 Z " fill="#0C1A2E" transform="translate(3963,638)"/>
<path d="M0 0 C51.81 0 103.62 0 157 0 C160.37472438 7.87435688 160.37472438 7.87435688 161.47607422 11.48901367 C161.72926926 12.31290085 161.98246429 13.13678802 162.24333191 13.98564148 C162.64495293 15.31339348 162.64495293 15.31339348 163.0546875 16.66796875 C163.34793411 17.62560623 163.64118073 18.58324371 163.9433136 19.56990051 C164.58430194 21.66465155 165.22351608 23.75994611 165.86117554 25.85571289 C167.26774959 30.47821458 168.68313535 35.09800592 170.09776306 39.7180481 C170.86274894 42.21683229 171.62727409 44.71575757 172.39137268 47.21481323 C176.52373711 60.72923973 180.69518519 74.23154675 184.86871338 87.73330688 C186.20187813 92.04625178 187.53436241 96.3594067 188.86669922 100.67260742 C189.3170972 102.13067143 189.76749596 103.58873519 190.21789551 105.04679871 C190.44150253 105.77067465 190.66510956 106.49455059 190.89549255 107.24036217 C191.80179609 110.17420175 192.70820754 113.10800798 193.61462021 116.04181385 C196.50025428 125.38183762 199.38509247 134.72210703 202.26953125 144.0625 C202.48542845 144.76161688 202.70132565 145.46073376 202.92376518 146.181036 C204.01300003 149.70820151 205.102222 153.23537101 206.19143677 156.76254272 C208.16344997 163.1484419 210.13554578 169.53431557 212.10764885 175.920187 C212.54624456 177.34040487 212.98483937 178.76062302 213.4234333 180.18084145 C216.4393052 189.9465798 219.45536856 199.71225901 222.47156334 209.47789764 C232.14752426 240.80618552 241.82103591 272.13522892 251.49150085 303.46521378 C252.29894862 306.08109766 253.10643808 308.69696866 253.91394043 311.31283569 C254.30277688 312.57248847 254.30277688 312.57248847 254.69946861 313.85758877 C255.21407577 315.5246622 255.72870489 317.19172885 256.2433567 318.85878849 C257.47416402 322.84593513 258.70434623 326.83327244 259.93307495 330.82106018 C261.91382111 337.24843148 263.8955703 343.67537381 265.90102482 350.09508705 C266.48656405 351.97005113 267.07024023 353.8455967 267.65385437 355.72116089 C268.34946283 357.95574034 269.04830356 360.18931734 269.75105286 362.42166138 C270.05129868 363.38836761 270.35154449 364.35507385 270.66088867 365.35107422 C270.92165695 366.18355682 271.18242523 367.01603943 271.45109558 367.87374878 C272 370 272 370 272 373 C272.99 373 273.98 373 275 373 C275.27457031 371.71609375 275.54914062 370.4321875 275.83203125 369.109375 C276.94664911 364.10385186 278.27404401 359.17852877 279.6875 354.25 C280.0750647 352.89297974 280.0750647 352.89297974 280.47045898 351.50854492 C282.60084835 344.15670019 284.99603126 336.91132288 287.46362305 329.66699219 C289.32699494 324.15252291 290.99537689 318.62234168 292.5 313 C295.00936363 303.62765275 298.12350743 294.48231409 301.23046875 285.29443359 C303.4495863 278.67791497 305.44411842 271.99998896 307.328125 265.28125 C310.10700519 255.38422583 313.07802952 245.60779864 316.39379883 235.87695312 C318.73812949 228.93747639 320.76588649 221.93709937 322.72827148 214.8815918 C324.74047168 207.72450849 327.06765037 200.69998073 329.46484375 193.6640625 C331.32743267 188.15046963 332.99573548 182.6213304 334.5 177 C336.2462894 170.47423971 338.25893511 164.08172941 340.4375 157.6875 C342.82714265 150.67307481 345.01441035 143.63933341 347 136.5 C349.23624311 128.45942368 351.77365472 120.56287706 354.46484375 112.6640625 C356.32743512 107.15046238 357.99565195 101.62131386 359.5 96 C362.00936363 86.62765275 365.12350743 77.48231409 368.23046875 68.29443359 C370.4495863 61.67791497 372.44411842 54.99998896 374.328125 48.28125 C377.16149915 38.18984541 380.16612423 28.20075048 383.55200195 18.27929688 C385.28494608 13.19856219 386.8854644 8.1016941 388.36254883 2.94018555 C389 1 389 1 390 0 C391.91094939 -0.09658904 393.82551866 -0.12187192 395.73890686 -0.12025452 C396.98557632 -0.12162918 398.23224579 -0.12300385 399.51669312 -0.12442017 C400.91094994 -0.12088056 402.30520653 -0.11724574 403.69946289 -0.11352539 C405.15771991 -0.11324353 406.61597707 -0.11340124 408.07423401 -0.1139679 C412.04513485 -0.1142559 416.01600575 -0.10835877 419.98689961 -0.10139394 C424.13225101 -0.09516081 428.27760302 -0.09455663 432.42295837 -0.09336853 C440.27819327 -0.09025509 448.13341432 -0.08204154 455.98864311 -0.07201904 C464.92924399 -0.06085829 473.86984552 -0.05534755 482.81045163 -0.05032361 C501.20697561 -0.03985893 519.6034867 -0.02225925 538 0 C536.27151069 6.5190439 534.44158432 12.96567454 532.26708984 19.34985352 C531.8825478 20.49166281 531.8825478 20.49166281 531.49023724 21.65653896 C530.65017715 24.14836613 529.80560641 26.63863799 528.9609375 29.12890625 C528.36158449 30.90355551 527.76250517 32.67829722 527.16368103 34.453125 C525.56822229 39.17913309 523.96878605 43.90378584 522.36850357 48.62816238 C520.69807705 53.56180884 519.03132338 58.49669605 517.36401367 63.43139648 C510.06804267 85.0193876 502.75145307 106.60036987 495.40185547 128.17016602 C488.89686822 147.26737909 482.45001986 166.38417155 476 185.5 C468.85537311 206.67420401 461.70580366 227.84651503 454.5 249 C447.33689537 270.02883181 440.22806883 291.07583453 433.125 312.125 C425.5584779 334.54739986 417.98514293 356.96735694 410.375 379.375 C402.76458537 401.78417584 395.18089959 424.20230404 387.60510254 446.62319946 C386.09098044 451.104295 384.57678778 455.58536669 383.0625 460.06640625 C382.81282219 460.80524866 382.56314438 461.54409107 382.30590057 462.30532265 C375.90760158 481.23814258 369.49549791 500.16628638 363.0811348 519.09366894 C362.43759417 520.99265375 361.79411374 522.89165897 361.15063477 524.79066467 C360.37245466 527.08712942 359.59414379 529.38354987 358.81567383 531.67991638 C358.47189697 532.6944136 358.12812012 533.70891083 357.77392578 534.75415039 C357.47769318 535.62809952 357.18146057 536.50204865 356.87625122 537.40248108 C355.91030027 540.26590175 354.9556275 543.1331175 354 546 C298.89 546 243.78 546 187 546 C182.49921686 534.74804215 182.49921686 534.74804215 181.11914062 530.75219727 C180.64465485 529.38379448 180.64465485 529.38379448 180.1605835 527.98774719 C179.82915344 527.02370468 179.49772339 526.05966217 179.15625 525.06640625 C178.79468811 524.02054855 178.43312622 522.97469086 178.06060791 521.8971405 C176.87108076 518.45317093 175.68540727 515.0078896 174.5 511.5625 C173.65791428 509.12075558 172.81579115 506.67902406 171.97363281 504.23730469 C165.40463311 485.17033583 158.9284211 466.07251919 152.47158813 446.96728516 C147.00846928 430.8058364 141.47190581 414.67419811 135.81481934 398.57971191 C129.298431 380.02238684 123.02449992 361.383965 116.74035263 342.7471199 C110.74501191 324.96790948 104.72803608 307.19942446 98.5 289.5 C92.00890641 271.05299373 85.74817572 252.53027854 79.5 234 C72.95451066 214.58804753 66.37516852 195.19205825 59.57714844 175.86669922 C53.57562896 158.79247781 47.78558729 141.64822273 42 124.5 C35.79050667 106.09586892 29.55615725 87.70321627 23.125 69.375 C18.07792567 54.98647077 13.08496399 40.58059833 8.15936279 26.14996338 C7.43310758 24.02292589 6.70578671 21.89625193 5.97735596 19.7699585 C4.97265306 16.83597912 3.97201548 13.90064687 2.97265625 10.96484375 C2.67036606 10.08381485 2.36807587 9.20278595 2.05662537 8.2950592 C1.64779869 7.08927467 1.64779869 7.08927467 1.23071289 5.85913086 C0.99171768 5.15831894 0.75272247 4.45750702 0.50648499 3.73545837 C0 2 0 2 0 0 Z " fill="#0C1A2E" transform="translate(2484,638)"/>
<path d="M0 0 C49.5 0 99 0 150 0 C150 248.82 150 497.64 150 754 C100.5 754 51 754 0 754 C0 505.18 0 256.36 0 0 Z " fill="#0C1A2E" transform="translate(3695,430)"/>
<path d="M0 0 C49.5 0 99 0 150 0 C150 248.82 150 497.64 150 754 C100.5 754 51 754 0 754 C0 505.18 0 256.36 0 0 Z " fill="#0C1A2E" transform="translate(1661,430)"/>
<path d="M0 0 C0 0.66 0 1.32 0 2 C1.06541016 2.12761719 1.06541016 2.12761719 2.15234375 2.2578125 C21.86912266 7.39661633 38.47603307 33.66763144 48.05908203 49.78076172 C61.32575497 72.49066118 67.21893725 98.20888532 71 124 C71.12004395 124.80469727 71.24008789 125.60939453 71.36376953 126.43847656 C76.81656372 165.0387335 74.97013098 210.19217 62 247 C61.58068041 248.27996109 61.16514327 249.56116924 60.75390625 250.84375 C58.27194775 258.46051446 55.58708961 265.82582078 52 273 C51.34 273 50.68 273 50 273 C49.855625 273.78375 49.71125 274.5675 49.5625 275.375 C49 278 49 278 48 280 C47.34 280 46.68 280 46 280 C45.96132813 280.66257812 45.92265625 281.32515625 45.8828125 282.0078125 C44.57577501 286.43785991 41.81692958 289.37737261 38.875 292.875 C38.318125 293.55691406 37.76125 294.23882813 37.1875 294.94140625 C27.14851462 307.08534017 15.64386417 316.12592914 2 324 C1.19046875 324.474375 0.3809375 324.94875 -0.453125 325.4375 C-27.94470376 340.39890341 -65.81335001 340.56390207 -95.33959961 332.40771484 C-108.80599054 328.34496753 -121.02154181 321.75958429 -132 313 C-132.94746094 312.26652344 -133.89492188 311.53304688 -134.87109375 310.77734375 C-140.56073597 306.27658199 -145.53937893 301.71778984 -150 296 C-150.40718262 295.48727539 -150.81436523 294.97455078 -151.23388672 294.44628906 C-158.52215988 285.20275357 -164.17040276 275.72256575 -169 265 C-169.47050781 263.97261719 -169.94101562 262.94523437 -170.42578125 261.88671875 C-183.79454229 231.29998684 -188.21668867 196.74283435 -188.25 163.625 C-188.25100708 162.9187851 -188.25201416 162.21257019 -188.25305176 161.48495483 C-188.20410272 109.9365844 -178.75875724 55.82116841 -141 18 C-103.34074126 -16.44800412 -45.34182242 -23.31178502 0 0 Z " fill="#FEFEFE" transform="translate(4922,749)"/>
<path d="M0 0 C54.78 0 109.56 0 166 0 C166 53.79 166 107.58 166 163 C111.22 163 56.44 163 0 163 C0 109.21 0 55.42 0 0 Z " fill="#1A6BFF" transform="translate(5177,1021)"/>
<path d="M0 0 C0.80050781 0.41636719 1.60101562 0.83273437 2.42578125 1.26171875 C15.18234304 8.36226112 24.79192266 18.10608482 33 30 C33.67417969 30.94746094 34.34835938 31.89492188 35.04296875 32.87109375 C47.85447972 52.12671803 60 81.5678317 60 105 C-20.52 105 -101.04 105 -184 105 C-181.67362365 84.06261282 -181.67362365 84.06261282 -179.6875 76.6875 C-179.35939331 75.4341687 -179.35939331 75.4341687 -179.0246582 74.15551758 C-174.53361558 57.46507056 -167.48775751 42.0136456 -156 29 C-155.28972656 28.15824219 -154.57945312 27.31648437 -153.84765625 26.44921875 C-135.52455595 5.22791278 -108.59887851 -7.58979375 -81 -11 C-80.2059375 -11.11085938 -79.411875 -11.22171875 -78.59375 -11.3359375 C-52.87156524 -14.3477123 -23.16067967 -12.50601137 0 0 Z " fill="#FCFDFD" transform="translate(3392,748)"/>
<path d="M0 0 C7.45400574 7.03758083 12.96210551 14.83903441 18.234375 23.578125 C18.5859668 24.14950195 18.93755859 24.72087891 19.29980469 25.30957031 C30.30231428 43.45055024 41.234375 70.19097854 41.234375 91.578125 C-39.285625 91.578125 -119.805625 91.578125 -202.765625 91.578125 C-202.09808006 82.23249583 -201.31691658 74.06889466 -199.078125 65.140625 C-198.8097583 64.0573291 -198.5413916 62.9740332 -198.26489258 61.85791016 C-190.79497468 32.62893588 -173.92171736 7.99017578 -147.89453125 -7.81640625 C-104.38827143 -33.41265931 -39.14444871 -34.27903701 0 0 Z " fill="#FCFDFD" transform="translate(2255.765625,761.421875)"/>
</svg>
