<svg width="100%" viewBox="0 0 680 200" xmlns="http://www.w3.org/2000/svg">

  <clipPath id="hc3">
    <path d="M100,148 C100,148 62,124 62,100 C62,86 72,78 82,83 C88,86 94,92 100,99 C106,92 112,86 118,83 C128,78 138,86 138,100 C138,124 100,148 100,148Z"/>
  </clipPath>

  <!-- Icono -->
  <rect x="40" y="50" width="120" height="120" rx="28" fill="#2563EB" style="fill:rgb(37, 99, 235);stroke:none;color:rgb(0, 0, 0);stroke-width:1px;stroke-linecap:butt;stroke-linejoin:miter;opacity:1;font-family:&quot;Anthropic Sans&quot;, -apple-system, &quot;system-ui&quot;, &quot;Segoe UI&quot;, sans-serif;font-size:16px;font-weight:400;text-anchor:start;dominant-baseline:auto"/>
  <path d="M100,148 C100,148 62,124 62,100 C62,86 72,78 82,83 C88,86 94,92 100,99 C106,92 112,86 118,83 C128,78 138,86 138,100 C138,124 100,148 100,148Z" fill="white" style="fill:rgb(255, 255, 255);stroke:none;color:rgb(0, 0, 0);stroke-width:1px;stroke-linecap:butt;stroke-linejoin:miter;opacity:1;font-family:&quot;Anthropic Sans&quot;, -apple-system, &quot;system-ui&quot;, &quot;Segoe UI&quot;, sans-serif;font-size:16px;font-weight:400;text-anchor:start;dominant-baseline:auto"/>
  <polyline points="62,108 76,108 85,90 95,126 100,105 106,114 114,108 138,108" fill="none" stroke="#2563EB" stroke-width="6" stroke-linecap="round" stroke-linejoin="round" clip-path="url(#hc3)" style="fill:none;stroke:rgb(37, 99, 235);color:rgb(0, 0, 0);stroke-width:6px;stroke-linecap:round;stroke-linejoin:round;opacity:1;font-family:&quot;Anthropic Sans&quot;, -apple-system, &quot;system-ui&quot;, &quot;Segoe UI&quot;, sans-serif;font-size:16px;font-weight:400;text-anchor:start;dominant-baseline:auto"/>

  <!-- MasVita+ todo junto -->
  <text x="182" y="132" style="font-family:var(--font-sans);font-size:58px;font-weight:700;fill:var(--color-text-primary);;fill:rgb(20, 20, 19);stroke:none;color:rgb(0, 0, 0);stroke-width:1px;stroke-linecap:butt;stroke-linejoin:miter;opacity:1;font-family:&quot;Anthropic Sans&quot;, sans-serif;font-size:58px;font-weight:700;text-anchor:start;dominant-baseline:auto">Mas</text>
  <text x="310" y="132" style="font-family:var(--font-sans);font-size:58px;font-weight:700;fill:#2563EB;;fill:rgb(37, 99, 235);stroke:none;color:rgb(0, 0, 0);stroke-width:1px;stroke-linecap:butt;stroke-linejoin:miter;opacity:1;font-family:&quot;Anthropic Sans&quot;, sans-serif;font-size:58px;font-weight:700;text-anchor:start;dominant-baseline:auto">Vita+</text>

</svg>