<svg width="100%" viewBox="0 0 680 380" xmlns="http://www.w3.org/2000/svg">

  <rect x="240" y="60" width="200" height="200" rx="48" fill="#2563EB" style="fill:rgb(37, 99, 235);stroke:none;color:rgb(0, 0, 0);stroke-width:1px;stroke-linecap:butt;stroke-linejoin:miter;opacity:1;font-family:&quot;Anthropic Sans&quot;, -apple-system, &quot;system-ui&quot;, &quot;Segoe UI&quot;, sans-serif;font-size:16px;font-weight:400;text-anchor:start;dominant-baseline:auto"/>

  <!-- Corazón blanco -->
  <path d="M340,222 C340,222 282,184 282,148 C282,126 298,112 314,120 C324,125 333,134 340,145 C347,134 356,125 366,120 C382,112 398,126 398,148 C398,184 340,222 340,222Z" fill="white" style="fill:rgb(255, 255, 255);stroke:none;color:rgb(0, 0, 0);stroke-width:1px;stroke-linecap:butt;stroke-linejoin:miter;opacity:1;font-family:&quot;Anthropic Sans&quot;, -apple-system, &quot;system-ui&quot;, &quot;Segoe UI&quot;, sans-serif;font-size:16px;font-weight:400;text-anchor:start;dominant-baseline:auto"/>

  <!-- Clip dentro del corazón -->
  <clipPath id="heartClip">
    <path d="M340,222 C340,222 282,184 282,148 C282,126 298,112 314,120 C324,125 333,134 340,145 C347,134 356,125 366,120 C382,112 398,126 398,148 C398,184 340,222 340,222Z"/>
  </clipPath>

  <!-- Pulso azul recortado al corazón, más abajo -->
  <polyline points="282,163 305,163 318,138 332,188 340,158 350,170 360,163 398,163" fill="none" stroke="#2563EB" stroke-width="7" stroke-linecap="round" stroke-linejoin="round" clip-path="url(#heartClip)" style="fill:none;stroke:rgb(37, 99, 235);color:rgb(0, 0, 0);stroke-width:7px;stroke-linecap:round;stroke-linejoin:round;opacity:1;font-family:&quot;Anthropic Sans&quot;, -apple-system, &quot;system-ui&quot;, &quot;Segoe UI&quot;, sans-serif;font-size:16px;font-weight:400;text-anchor:start;dominant-baseline:auto"/>

</svg>